<svg width="12" height="12" viewBox="0 0 12 12" fill="none" xmlns="http://www.w3.org/2000/svg">
<path fill-rule="evenodd" clip-rule="evenodd" d="M9.55764 1.02817C9.97176 0.614049 10.6241 0.594922 11.0146 0.985446C11.4051 1.37597 11.386 2.02826 10.9719 2.44238L7.41419 6.00005L10.8992 9.48503C11.3099 9.89575 11.3263 10.5453 10.9357 10.9358C10.5452 11.3263 9.89568 11.31 9.48496 10.8992L5.99998 7.41426L2.48845 10.9258C2.07433 11.3399 1.42204 11.359 1.03151 10.9685C0.640988 10.578 0.660116 9.9257 1.07424 9.51158L4.58576 6.00005L1.07113 2.48541C0.660404 2.07469 0.64403 1.42515 1.03455 1.03463C1.42508 0.644104 2.07462 0.660478 2.48534 1.0712L5.99998 4.58584L9.55764 1.02817Z" fill="#828282"/>
</svg>
